<svg width="240" height="52" viewBox="0 0 240 52" fill="none" xmlns="http://www.w3.org/2000/svg"><g clip-path="url(#clip0_1_7433)">
              <path class="arrowicon" fill-rule="evenodd" clip-rule="evenodd" d="M120 0C125.691 0 130.953 1.80441 135.249 4.85599C131.866 2.73315 127.85 1.50721 123.544 1.50721C111.452 1.50721 101.647 11.198 101.647 23.1495C101.647 31.2534 106.158 38.3119 112.826 42.0215L111.097 44.5636L118.556 42.4036L117.288 35.462L115.898 37.5052C109.82 34.374 105.664 28.0851 105.664 20.8409C105.664 10.4709 114.174 2.05915 124.666 2.05915C128.967 2.05915 132.929 3.47084 136.113 5.85372C135.963 5.80595 135.813 5.7688 135.657 5.73166C133.074 3.86887 129.896 2.7703 126.454 2.7703C117.82 2.7703 110.813 9.69605 110.813 18.2298C110.813 24.3701 114.443 29.6772 119.694 32.1716L118.518 33.8698L124.397 32.2193L123.447 26.753L122.626 27.9365C118.738 25.7659 116.118 21.6423 116.118 16.919C116.118 9.93487 121.852 4.2669 128.918 4.2669C130.959 4.2669 132.881 4.73923 134.594 5.57775C134.481 5.57244 134.368 5.56713 134.256 5.56713C133.139 5.1691 131.936 4.95151 130.68 4.95151C124.87 4.95151 120.156 9.61114 120.156 15.3534C120.156 19.1161 122.18 22.4118 125.208 24.2375L124.188 25.6969L129.321 24.2799L128.516 19.5035L127.759 20.5915C125.659 19.1374 124.29 16.7332 124.29 14.0107C124.29 9.78096 127.603 6.31013 131.802 6.00232C129.305 6.94698 127.528 9.33517 127.528 12.132C127.528 15.7514 130.502 18.6916 134.164 18.6916C137.826 18.6916 140.801 15.7514 140.801 12.132C140.801 11.2033 140.602 10.3223 140.253 9.52092C143.926 13.9683 146.133 19.6521 146.133 25.8349C146.133 40.0951 134.427 51.6645 120 51.6645C105.572 51.6645 93.8672 40.0897 93.8672 25.8349C93.8672 11.5801 105.572 0 120 0Z" fill="#B2B1B2"></path><path class="reddot" fill-rule="evenodd" clip-rule="evenodd" d="M134.164 8.32227C136.291 8.32227 138.014 10.0258 138.014 12.1274C138.014 14.2291 136.291 15.9326 134.164 15.9326C132.038 15.9326 130.314 14.2291 130.314 12.1274C130.314 10.0258 132.038 8.32227 134.164 8.32227Z" fill="#ED1C24"></path><path d="M13.4503 31.8847C13.4503 32.7285 13.2784 33.4609 12.9455 34.0872C12.6073 34.7134 12.124 35.2547 11.4904 35.7217C10.8569 36.1888 10.089 36.5443 9.17625 36.7885C8.26346 37.0326 7.33993 37.16 6.40029 37.16C6.04591 37.16 5.71838 37.1547 5.40695 37.1387C5.1009 37.1228 4.55322 37.0644 3.77467 36.9636C2.99611 36.8628 2.47528 36.7832 2.20681 36.7248C1.93834 36.6664 1.33697 36.5231 0.397333 36.2896L0 33.8059C0.467135 34.0076 0.907423 34.1827 1.3155 34.3313C1.72357 34.4799 2.36252 34.6603 3.22699 34.8779C4.09146 35.0955 5.03647 35.2069 6.06202 35.2069C6.79225 35.2069 7.45805 35.1273 8.05942 34.9681C8.66079 34.8089 9.25142 34.4799 9.83668 33.9863C10.4219 33.4928 10.7173 32.7657 10.7173 31.8051C10.7173 30.6163 9.91722 29.4063 8.32252 28.1857C6.72782 26.965 5.38011 25.9142 4.28476 25.028C3.1894 24.1417 2.34641 23.2766 1.76115 22.4328C1.17589 21.589 0.885946 20.6602 0.885946 19.6413C0.885946 18.1871 1.46584 16.9983 2.62562 16.0696C3.7854 15.1409 5.49823 14.6738 7.75874 14.6738C8.61247 14.6738 9.38029 14.7163 10.0729 14.8065C10.7656 14.8914 11.5602 15.0241 12.473 15.1992L12.6502 16.3349L12.8704 17.6405L10.7173 16.9877C9.85279 16.7542 8.98295 16.6375 8.11848 16.6375C7.45268 16.6375 6.87279 16.6905 6.3627 16.7914C5.85798 16.8922 5.25661 17.131 4.56396 17.5078C3.87131 17.8846 3.52767 18.6276 3.52767 19.7315C3.52767 20.8354 4.32234 22.0135 5.9063 23.2607C7.49564 24.5079 8.85409 25.5799 9.98702 26.4662C11.12 27.3525 11.9791 28.2175 12.5643 29.0613C13.1496 29.9052 13.4449 30.8498 13.4449 31.8953L13.4503 31.8847Z"></path><path d="M16.8438 25.9142C16.8438 22.8945 17.6867 20.2622 19.3781 18.0279C21.0694 15.7936 23.84 14.6738 27.6899 14.6738C30.9813 14.6738 33.5962 15.6769 35.5399 17.6829C37.4782 19.689 38.4501 22.4169 38.4501 25.8771C38.4501 28.9287 37.6178 31.5716 35.9587 33.8059C34.2996 36.0455 31.5397 37.16 27.6899 37.16C24.4253 37.16 21.805 36.1516 19.8184 34.1296C17.8317 32.1129 16.8438 29.3745 16.8438 25.9142ZM35.7117 25.8718C35.7117 23.1121 35.0513 20.8831 33.725 19.1849C32.3988 17.4866 30.3746 16.6375 27.6415 16.6375C26.2026 16.6375 24.973 16.8603 23.9582 17.3115C22.9434 17.7626 22.1111 18.41 21.4668 19.2485C20.8225 20.0924 20.3446 21.0795 20.0332 22.2099C19.7271 23.3403 19.5714 24.5769 19.5714 25.9142C19.5714 27.2516 19.7164 28.4298 20.0117 29.5337C20.307 30.6375 20.7849 31.6247 21.4453 32.495C22.1057 33.3654 22.9434 34.0341 23.9582 34.5011C24.973 34.9681 26.2133 35.1963 27.6845 35.1963C29.1557 35.1963 30.3746 34.9734 31.3464 34.5223C32.3183 34.0712 33.1344 33.4238 33.7948 32.5852C34.4553 31.7414 34.9439 30.7331 35.2499 29.5549C35.556 28.3767 35.7117 27.1508 35.7117 25.8718Z"></path><path d="M54.0535 9.61588L52.3353 9.13824C51.5406 8.99495 50.8373 8.92065 50.2198 8.92065C48.8399 8.92065 47.911 9.20193 47.4438 9.76979C46.9713 10.3376 46.7404 10.9957 46.7404 11.7546V15.1512H52.6951V17.1148H46.7404V36.682H44.0074V17.1148H41.2744V15.1512H44.0074V12.0147C44.0074 11.2292 44.1041 10.5393 44.292 9.94492C44.4799 9.35053 44.8128 8.82513 45.2853 8.37402C45.7578 7.92292 46.3861 7.57796 47.1807 7.32853C47.9754 7.0844 48.8828 6.95703 49.9137 6.95703C50.5312 6.95703 51.1165 6.99418 51.6749 7.06848C52.2333 7.14278 52.9098 7.26484 53.7045 7.43998L54.0589 9.62119L54.0535 9.61588Z"></path><path d="M67.3426 34.5005L66.9023 36.6339C65.6405 36.9842 64.4646 37.1593 63.3746 37.1593C62.1128 37.1593 61.0658 36.9577 60.2443 36.549C59.4228 36.1404 58.8912 35.5991 58.655 34.9144C58.4187 34.2298 58.2737 33.646 58.2147 33.1472C58.1556 32.6536 58.1288 32.1176 58.1288 31.5338V17.1092H55.4387V15.1455H58.1288V11.2236L60.8618 10.6133V15.1455H66.9882V17.1092H60.8618V31.1411C60.8618 32.1866 61.0121 33.0092 61.3235 33.6036C61.6296 34.198 62.0108 34.5907 62.4619 34.7818C62.9129 34.9728 63.4015 35.063 63.9277 35.063C64.513 35.063 65.168 34.9887 65.8983 34.8454L67.3426 34.4952V34.5005Z"></path><path d="M73.0716 19.5979C73.6569 18.2605 74.7737 17.1195 76.4221 16.1748C78.0705 15.2301 79.8156 14.7578 81.668 14.7578C83.1392 14.7578 84.358 14.8799 85.3299 15.1293C86.3018 15.3787 87.1716 15.8033 87.9555 16.4136C88.7341 17.0239 89.3247 17.8306 89.7167 18.8337C90.114 19.8367 90.3127 20.9353 90.3127 22.1241V36.6814H87.5797V22.607C87.5797 20.5744 87.0051 19.099 85.8615 18.1862C84.7124 17.2734 83.1285 16.8117 81.0988 16.8117C78.3068 16.8117 76.2718 17.6024 74.9939 19.1892C73.716 20.7707 73.077 23.005 73.077 25.8762V36.6814H70.344V15.1505H73.077V19.5979H73.0716Z"></path><path d="M163.368 34.5005L162.928 36.6339C161.666 36.9842 160.491 37.1593 159.401 37.1593C158.139 37.1593 157.092 36.9577 156.27 36.549C155.449 36.1404 154.917 35.5991 154.681 34.9144C154.445 34.2298 154.3 33.646 154.241 33.1472C154.182 32.6536 154.155 32.1176 154.155 31.5338V17.1092H151.465V15.1455H154.155V11.2236L156.888 10.6133V15.1455H163.014V17.1092H156.888V31.1411C156.888 32.1866 157.043 33.0092 157.349 33.6036C157.655 34.198 158.037 34.5907 158.488 34.7818C158.939 34.9728 159.427 35.063 159.954 35.063C160.539 35.063 161.194 34.9887 161.924 34.8454L163.368 34.4952V34.5005Z"></path><path d="M170.912 10.1414H167.739V7.61523H170.912V10.1414ZM170.692 36.6768H167.959V15.1513H170.692V36.6768Z"></path><path d="M175.718 25.9142C175.718 22.8945 176.561 20.2622 178.252 18.0279C179.944 15.7936 182.714 14.6738 186.564 14.6738C189.856 14.6738 192.47 15.6769 194.414 17.6829C196.358 19.689 197.324 22.4169 197.324 25.8771C197.324 28.9287 196.492 31.5716 194.833 33.8059C193.174 36.0455 190.414 37.16 186.564 37.16C183.3 37.16 180.679 36.1516 178.693 34.1296C176.706 32.1129 175.718 29.3745 175.718 25.9142ZM194.586 25.8718C194.586 23.1121 193.926 20.8831 192.599 19.1849C191.278 17.4866 189.249 16.6375 186.516 16.6375C185.077 16.6375 183.847 16.8603 182.832 17.3115C181.818 17.7626 180.985 18.41 180.341 19.2485C179.691 20.0924 179.219 21.0795 178.907 22.2099C178.596 23.3403 178.446 24.5769 178.446 25.9142C178.446 27.2516 178.591 28.4298 178.886 29.5337C179.181 30.6375 179.659 31.6247 180.32 32.495C180.98 33.3654 181.818 34.0341 182.832 34.5011C183.847 34.9681 185.088 35.1963 186.559 35.1963C188.03 35.1963 189.249 34.9734 190.221 34.5223C191.193 34.0712 192.009 33.4238 192.669 32.5852C193.33 31.7414 193.813 30.7331 194.124 29.5549C194.436 28.3767 194.586 27.1508 194.586 25.8718Z"></path><path d="M204.815 19.5979C205.4 18.2605 206.517 17.1195 208.165 16.1748C209.808 15.2301 211.558 14.7578 213.411 14.7578C214.882 14.7578 216.101 14.8799 217.073 15.1293C218.045 15.3787 218.915 15.8033 219.698 16.4136C220.477 17.0239 221.068 17.8306 221.46 18.8337C221.857 19.8367 222.056 20.9353 222.056 22.1241V36.6814H219.323V22.607C219.323 20.5744 218.748 19.099 217.604 18.1862C216.461 17.2734 214.871 16.8117 212.842 16.8117C210.05 16.8117 208.015 17.6024 206.737 19.1892C205.459 20.7707 204.82 23.005 204.82 25.8762V36.6814H202.087V15.1505H204.82V19.5979H204.815Z"></path><path d="M240 31.8847C240 32.7285 239.828 33.4609 239.495 34.0872C239.157 34.7134 238.674 35.2547 238.04 35.7217C237.407 36.1888 236.639 36.5443 235.726 36.7885C234.813 37.0326 233.89 37.16 232.95 37.16C232.596 37.16 232.268 37.1547 231.957 37.1387C231.645 37.1228 231.103 37.0644 230.324 36.9636C229.546 36.8628 229.025 36.7832 228.757 36.7248C228.494 36.6664 227.887 36.5231 226.947 36.2896L226.55 33.8059C227.017 34.0076 227.457 34.1827 227.865 34.3313C228.273 34.4799 228.912 34.6603 229.777 34.8779C230.641 35.0955 231.586 35.2069 232.612 35.2069C233.342 35.2069 234.008 35.1273 234.609 34.9681C235.211 34.8089 235.801 34.4799 236.386 33.9863C236.972 33.4928 237.267 32.7657 237.267 31.8051C237.267 30.6163 236.467 29.4063 234.872 28.1857C233.278 26.965 231.93 25.9142 230.835 25.028C229.739 24.1417 228.896 23.2766 228.311 22.4328C227.726 21.589 227.436 20.6602 227.436 19.6413C227.436 18.1871 228.016 16.9983 229.175 16.0696C230.335 15.1409 232.048 14.6738 234.309 14.6738C235.162 14.6738 235.93 14.7163 236.623 14.8065C237.315 14.8914 238.115 15.0241 239.023 15.1992L239.2 16.3349L239.42 17.6405L237.267 16.9877C236.403 16.7542 235.533 16.6375 234.668 16.6375C234.002 16.6375 233.423 16.6905 232.918 16.7914C232.413 16.8922 231.812 17.131 231.119 17.5078C230.426 17.8846 230.083 18.6276 230.083 19.7315C230.083 20.8354 230.878 22.0135 232.461 23.2607C234.051 24.5079 235.409 25.5799 236.542 26.4662C237.675 27.3525 238.534 28.2175 239.119 29.0613C239.705 29.9052 240 30.8498 240 31.8953V31.8847Z"></path>    </g><defs><clipPath id="clip0_1_7433"><rect width="240" height="51.6592" fill="white"></rect></clipPath></defs></svg>
