<svg width="32" height="32" viewBox="93 0 54 52" fill="none" xmlns="http://www.w3.org/2000/svg">
<path fill-rule="evenodd" clip-rule="evenodd" d="M120 0C125.691 0 130.953 1.80441 135.249 4.85599C131.866 2.73315 127.85 1.50721 123.544 1.50721C111.452 1.50721 101.647 11.198 101.647 23.1495C101.647 31.2534 106.158 38.3119 112.826 42.0215L111.097 44.5636L118.556 42.4036L117.288 35.462L115.898 37.5052C109.82 34.374 105.664 28.0851 105.664 20.8409C105.664 10.4709 114.174 2.05915 124.666 2.05915C128.967 2.05915 132.929 3.47084 136.113 5.85372C135.963 5.80595 135.813 5.7688 135.657 5.73166C133.074 3.86887 129.896 2.7703 126.454 2.7703C117.82 2.7703 110.813 9.69605 110.813 18.2298C110.813 24.3701 114.443 29.6772 119.694 32.1716L118.518 33.8698L124.397 32.2193L123.447 26.753L122.626 27.9365C118.738 25.7659 116.118 21.6423 116.118 16.919C116.118 9.93487 121.852 4.2669 128.918 4.2669C130.959 4.2669 132.881 4.73923 134.594 5.57775C134.481 5.57244 134.368 5.56713 134.256 5.56713C133.139 5.1691 131.936 4.95151 130.68 4.95151C124.87 4.95151 120.156 9.61114 120.156 15.3534C120.156 19.1161 122.18 22.4118 125.208 24.2375L124.188 25.6969L129.321 24.2799L128.516 19.5035L127.759 20.5915C125.659 19.1374 124.29 16.7332 124.29 14.0107C124.29 9.78096 127.603 6.31013 131.802 6.00232C129.305 6.94698 127.528 9.33517 127.528 12.132C127.528 15.7514 130.502 18.6916 134.164 18.6916C137.826 18.6916 140.801 15.7514 140.801 12.132C140.801 11.2033 140.602 10.3223 140.253 9.52092C143.926 13.9683 146.133 19.6521 146.133 25.8349C146.133 40.0951 134.427 51.6645 120 51.6645C105.572 51.6645 93.8672 40.0897 93.8672 25.8349C93.8672 11.5801 105.572 0 120 0Z" fill="#B2B1B2"/>
<path fill-rule="evenodd" clip-rule="evenodd" d="M134.164 8.32227C136.291 8.32227 138.014 10.0258 138.014 12.1274C138.014 14.2291 136.291 15.9326 134.164 15.9326C132.038 15.9326 130.314 14.2291 130.314 12.1274C130.314 10.0258 132.038 8.32227 134.164 8.32227Z" fill="#ED1C24"/>
</svg>
